<mxfile host="Electron" modified="2023-04-23T13:08:50.029Z" agent="Mozilla/5.0 (Windows NT 10.0; Win64; x64) AppleWebKit/537.36 (KHTML, like Gecko) draw.io/21.1.2 Chrome/106.0.5249.199 Electron/21.4.3 Safari/537.36" etag="YiRXYWH9SvrGbmoW7FL-" version="21.1.2" type="device">
  <diagram name="第 1 页" id="9Yr-irU-KVgCtbHujpBM">
    <mxGraphModel dx="2074" dy="1204" grid="1" gridSize="10" guides="1" tooltips="1" connect="1" arrows="1" fold="1" page="1" pageScale="1" pageWidth="2027" pageHeight="2069" math="0" shadow="0">
      <root>
        <mxCell id="0" />
        <mxCell id="1" parent="0" />
        <mxCell id="BPcnXbv9HBGROFSFqeC2-1" value="分片结构" style="swimlane;strokeWidth=2;swimlaneFillColor=#E6E6E6;fillColor=#1ba1e2;strokeColor=#006EAF;fontColor=#ffffff;" vertex="1" parent="1">
          <mxGeometry x="500" y="440" width="980" height="900" as="geometry" />
        </mxCell>
        <mxCell id="BPcnXbv9HBGROFSFqeC2-47" value="" style="rounded=1;whiteSpace=wrap;html=1;dashed=1;strokeWidth=2;fillColor=#f5f5f5;gradientColor=#b3b3b3;strokeColor=#666666;" vertex="1" parent="BPcnXbv9HBGROFSFqeC2-1">
          <mxGeometry x="625" y="180" width="210" height="570" as="geometry" />
        </mxCell>
        <mxCell id="BPcnXbv9HBGROFSFqeC2-46" value="" style="rounded=1;whiteSpace=wrap;html=1;dashed=1;strokeWidth=2;fillColor=#f5f5f5;gradientColor=#b3b3b3;strokeColor=#666666;" vertex="1" parent="BPcnXbv9HBGROFSFqeC2-1">
          <mxGeometry x="444" y="180" width="140" height="570" as="geometry" />
        </mxCell>
        <mxCell id="BPcnXbv9HBGROFSFqeC2-45" value="" style="rounded=1;whiteSpace=wrap;html=1;dashed=1;strokeWidth=2;fillColor=#f5f5f5;gradientColor=#b3b3b3;strokeColor=#666666;" vertex="1" parent="BPcnXbv9HBGROFSFqeC2-1">
          <mxGeometry x="230" y="180" width="140" height="570" as="geometry" />
        </mxCell>
        <mxCell id="BPcnXbv9HBGROFSFqeC2-2" value="index1" style="rounded=1;whiteSpace=wrap;html=1;strokeWidth=2;fillColor=#ffcd28;gradientColor=#ffa500;strokeColor=#d79b00;" vertex="1" parent="BPcnXbv9HBGROFSFqeC2-1">
          <mxGeometry x="240" y="210" width="120" height="60" as="geometry" />
        </mxCell>
        <mxCell id="BPcnXbv9HBGROFSFqeC2-3" value="index2" style="rounded=1;whiteSpace=wrap;html=1;strokeWidth=2;fillColor=#ffcd28;gradientColor=#ffa500;strokeColor=#d79b00;" vertex="1" parent="BPcnXbv9HBGROFSFqeC2-1">
          <mxGeometry x="455" y="210" width="120" height="60" as="geometry" />
        </mxCell>
        <mxCell id="BPcnXbv9HBGROFSFqeC2-4" value="index3" style="rounded=1;whiteSpace=wrap;html=1;strokeWidth=2;fillColor=#ffcd28;gradientColor=#ffa500;strokeColor=#d79b00;" vertex="1" parent="BPcnXbv9HBGROFSFqeC2-1">
          <mxGeometry x="670" y="210" width="120" height="60" as="geometry" />
        </mxCell>
        <mxCell id="BPcnXbv9HBGROFSFqeC2-5" value="node2" style="ellipse;shape=cloud;whiteSpace=wrap;html=1;strokeWidth=2;fillColor=#d5e8d4;gradientColor=#97d077;strokeColor=#82b366;" vertex="1" parent="BPcnXbv9HBGROFSFqeC2-1">
          <mxGeometry x="30" y="315" width="120" height="80" as="geometry" />
        </mxCell>
        <mxCell id="BPcnXbv9HBGROFSFqeC2-6" value="node1" style="ellipse;shape=cloud;whiteSpace=wrap;html=1;strokeWidth=2;fillColor=#d5e8d4;gradientColor=#97d077;strokeColor=#82b366;" vertex="1" parent="BPcnXbv9HBGROFSFqeC2-1">
          <mxGeometry x="30" y="465" width="120" height="80" as="geometry" />
        </mxCell>
        <mxCell id="BPcnXbv9HBGROFSFqeC2-7" value="node3" style="ellipse;shape=cloud;whiteSpace=wrap;html=1;strokeWidth=2;fillColor=#d5e8d4;gradientColor=#97d077;strokeColor=#82b366;" vertex="1" parent="BPcnXbv9HBGROFSFqeC2-1">
          <mxGeometry x="30" y="615" width="120" height="80" as="geometry" />
        </mxCell>
        <mxCell id="BPcnXbv9HBGROFSFqeC2-9" value="" style="rounded=1;whiteSpace=wrap;html=1;strokeWidth=2;dashed=1;fillColor=#f5f5f5;gradientColor=#b3b3b3;strokeColor=#666666;" vertex="1" parent="BPcnXbv9HBGROFSFqeC2-1">
          <mxGeometry x="240" y="455" width="120" height="110" as="geometry" />
        </mxCell>
        <mxCell id="BPcnXbv9HBGROFSFqeC2-12" value="" style="rounded=1;whiteSpace=wrap;html=1;strokeWidth=2;dashed=1;fillColor=#f5f5f5;gradientColor=#b3b3b3;strokeColor=#666666;" vertex="1" parent="BPcnXbv9HBGROFSFqeC2-1">
          <mxGeometry x="240" y="617" width="120" height="110" as="geometry" />
        </mxCell>
        <mxCell id="BPcnXbv9HBGROFSFqeC2-13" value="分片" style="shape=cylinder3;whiteSpace=wrap;html=1;boundedLbl=1;backgroundOutline=1;size=15;strokeWidth=2;fillColor=#dae8fc;gradientColor=#7ea6e0;strokeColor=#6c8ebf;" vertex="1" parent="BPcnXbv9HBGROFSFqeC2-1">
          <mxGeometry x="250" y="470" width="40" height="80" as="geometry" />
        </mxCell>
        <mxCell id="BPcnXbv9HBGROFSFqeC2-14" value="分片" style="shape=cylinder3;whiteSpace=wrap;html=1;boundedLbl=1;backgroundOutline=1;size=15;strokeWidth=2;fillColor=#dae8fc;gradientColor=#7ea6e0;strokeColor=#6c8ebf;" vertex="1" parent="BPcnXbv9HBGROFSFqeC2-1">
          <mxGeometry x="310" y="470" width="40" height="80" as="geometry" />
        </mxCell>
        <mxCell id="BPcnXbv9HBGROFSFqeC2-15" value="" style="rounded=1;whiteSpace=wrap;html=1;strokeWidth=2;dashed=1;fillColor=#f5f5f5;gradientColor=#b3b3b3;strokeColor=#666666;" vertex="1" parent="BPcnXbv9HBGROFSFqeC2-1">
          <mxGeometry x="240" y="300" width="120" height="110" as="geometry" />
        </mxCell>
        <mxCell id="BPcnXbv9HBGROFSFqeC2-16" value="分片" style="shape=cylinder3;whiteSpace=wrap;html=1;boundedLbl=1;backgroundOutline=1;size=15;strokeWidth=2;fillColor=#dae8fc;gradientColor=#7ea6e0;strokeColor=#6c8ebf;" vertex="1" parent="BPcnXbv9HBGROFSFqeC2-1">
          <mxGeometry x="250" y="315" width="40" height="80" as="geometry" />
        </mxCell>
        <mxCell id="BPcnXbv9HBGROFSFqeC2-17" value="分片" style="shape=cylinder3;whiteSpace=wrap;html=1;boundedLbl=1;backgroundOutline=1;size=15;strokeWidth=2;fillColor=#dae8fc;gradientColor=#7ea6e0;strokeColor=#6c8ebf;" vertex="1" parent="BPcnXbv9HBGROFSFqeC2-1">
          <mxGeometry x="310" y="315" width="40" height="80" as="geometry" />
        </mxCell>
        <mxCell id="BPcnXbv9HBGROFSFqeC2-18" value="" style="rounded=1;whiteSpace=wrap;html=1;strokeWidth=2;dashed=1;fillColor=#f5f5f5;gradientColor=#b3b3b3;strokeColor=#666666;" vertex="1" parent="BPcnXbv9HBGROFSFqeC2-1">
          <mxGeometry x="486" y="455" width="56" height="110" as="geometry" />
        </mxCell>
        <mxCell id="BPcnXbv9HBGROFSFqeC2-19" value="分片" style="shape=cylinder3;whiteSpace=wrap;html=1;boundedLbl=1;backgroundOutline=1;size=15;strokeWidth=2;fillColor=#f8cecc;gradientColor=#ea6b66;strokeColor=#b85450;" vertex="1" parent="BPcnXbv9HBGROFSFqeC2-1">
          <mxGeometry x="495" y="470" width="40" height="80" as="geometry" />
        </mxCell>
        <mxCell id="BPcnXbv9HBGROFSFqeC2-21" value="" style="rounded=1;whiteSpace=wrap;html=1;strokeWidth=2;dashed=1;fillColor=#f5f5f5;gradientColor=#b3b3b3;strokeColor=#666666;" vertex="1" parent="BPcnXbv9HBGROFSFqeC2-1">
          <mxGeometry x="486" y="300" width="56" height="110" as="geometry" />
        </mxCell>
        <mxCell id="BPcnXbv9HBGROFSFqeC2-22" value="分片" style="shape=cylinder3;whiteSpace=wrap;html=1;boundedLbl=1;backgroundOutline=1;size=15;strokeWidth=2;fillColor=#dae8fc;gradientColor=#7ea6e0;strokeColor=#6c8ebf;" vertex="1" parent="BPcnXbv9HBGROFSFqeC2-1">
          <mxGeometry x="495" y="315" width="40" height="80" as="geometry" />
        </mxCell>
        <mxCell id="BPcnXbv9HBGROFSFqeC2-23" value="" style="rounded=1;whiteSpace=wrap;html=1;strokeWidth=2;dashed=1;fillColor=#f5f5f5;gradientColor=#b3b3b3;strokeColor=#666666;" vertex="1" parent="BPcnXbv9HBGROFSFqeC2-1">
          <mxGeometry x="487" y="617" width="56" height="110" as="geometry" />
        </mxCell>
        <mxCell id="BPcnXbv9HBGROFSFqeC2-24" value="分片" style="shape=cylinder3;whiteSpace=wrap;html=1;boundedLbl=1;backgroundOutline=1;size=15;strokeWidth=2;fillColor=#dae8fc;gradientColor=#7ea6e0;strokeColor=#6c8ebf;" vertex="1" parent="BPcnXbv9HBGROFSFqeC2-1">
          <mxGeometry x="496" y="632" width="40" height="80" as="geometry" />
        </mxCell>
        <mxCell id="BPcnXbv9HBGROFSFqeC2-25" value="" style="rounded=1;whiteSpace=wrap;html=1;strokeWidth=2;dashed=1;fillColor=#f5f5f5;gradientColor=#b3b3b3;strokeColor=#666666;" vertex="1" parent="BPcnXbv9HBGROFSFqeC2-1">
          <mxGeometry x="640" y="455" width="180" height="110" as="geometry" />
        </mxCell>
        <mxCell id="BPcnXbv9HBGROFSFqeC2-26" value="分片" style="shape=cylinder3;whiteSpace=wrap;html=1;boundedLbl=1;backgroundOutline=1;size=15;strokeWidth=2;fillColor=#dae8fc;gradientColor=#7ea6e0;strokeColor=#6c8ebf;" vertex="1" parent="BPcnXbv9HBGROFSFqeC2-1">
          <mxGeometry x="650" y="470" width="40" height="80" as="geometry" />
        </mxCell>
        <mxCell id="BPcnXbv9HBGROFSFqeC2-27" value="分片" style="shape=cylinder3;whiteSpace=wrap;html=1;boundedLbl=1;backgroundOutline=1;size=15;strokeWidth=2;fillColor=#f8cecc;gradientColor=#ea6b66;strokeColor=#b85450;" vertex="1" parent="BPcnXbv9HBGROFSFqeC2-1">
          <mxGeometry x="710" y="470" width="40" height="80" as="geometry" />
        </mxCell>
        <mxCell id="BPcnXbv9HBGROFSFqeC2-28" value="分片" style="shape=cylinder3;whiteSpace=wrap;html=1;boundedLbl=1;backgroundOutline=1;size=15;strokeWidth=2;fillColor=#dae8fc;gradientColor=#7ea6e0;strokeColor=#6c8ebf;" vertex="1" parent="BPcnXbv9HBGROFSFqeC2-1">
          <mxGeometry x="770" y="470" width="40" height="80" as="geometry" />
        </mxCell>
        <mxCell id="BPcnXbv9HBGROFSFqeC2-30" value="" style="rounded=1;whiteSpace=wrap;html=1;strokeWidth=2;dashed=1;fillColor=#f5f5f5;gradientColor=#b3b3b3;strokeColor=#666666;" vertex="1" parent="BPcnXbv9HBGROFSFqeC2-1">
          <mxGeometry x="640" y="617" width="180" height="110" as="geometry" />
        </mxCell>
        <mxCell id="BPcnXbv9HBGROFSFqeC2-31" value="分片" style="shape=cylinder3;whiteSpace=wrap;html=1;boundedLbl=1;backgroundOutline=1;size=15;strokeWidth=2;fillColor=#dae8fc;gradientColor=#7ea6e0;strokeColor=#6c8ebf;" vertex="1" parent="BPcnXbv9HBGROFSFqeC2-1">
          <mxGeometry x="650" y="632" width="40" height="80" as="geometry" />
        </mxCell>
        <mxCell id="BPcnXbv9HBGROFSFqeC2-32" value="分片" style="shape=cylinder3;whiteSpace=wrap;html=1;boundedLbl=1;backgroundOutline=1;size=15;strokeWidth=2;fillColor=#dae8fc;gradientColor=#7ea6e0;strokeColor=#6c8ebf;" vertex="1" parent="BPcnXbv9HBGROFSFqeC2-1">
          <mxGeometry x="710" y="632" width="40" height="80" as="geometry" />
        </mxCell>
        <mxCell id="BPcnXbv9HBGROFSFqeC2-33" value="分片" style="shape=cylinder3;whiteSpace=wrap;html=1;boundedLbl=1;backgroundOutline=1;size=15;strokeWidth=2;fillColor=#f8cecc;gradientColor=#ea6b66;strokeColor=#b85450;" vertex="1" parent="BPcnXbv9HBGROFSFqeC2-1">
          <mxGeometry x="770" y="632" width="40" height="80" as="geometry" />
        </mxCell>
        <mxCell id="BPcnXbv9HBGROFSFqeC2-34" value="" style="rounded=1;whiteSpace=wrap;html=1;strokeWidth=2;dashed=1;fillColor=#f5f5f5;gradientColor=#b3b3b3;strokeColor=#666666;" vertex="1" parent="BPcnXbv9HBGROFSFqeC2-1">
          <mxGeometry x="640" y="300" width="180" height="110" as="geometry" />
        </mxCell>
        <mxCell id="BPcnXbv9HBGROFSFqeC2-35" value="分片" style="shape=cylinder3;whiteSpace=wrap;html=1;boundedLbl=1;backgroundOutline=1;size=15;strokeWidth=2;fillColor=#f8cecc;gradientColor=#ea6b66;strokeColor=#b85450;" vertex="1" parent="BPcnXbv9HBGROFSFqeC2-1">
          <mxGeometry x="650" y="315" width="40" height="80" as="geometry" />
        </mxCell>
        <mxCell id="BPcnXbv9HBGROFSFqeC2-36" value="分片" style="shape=cylinder3;whiteSpace=wrap;html=1;boundedLbl=1;backgroundOutline=1;size=15;strokeWidth=2;fillColor=#dae8fc;gradientColor=#7ea6e0;strokeColor=#6c8ebf;" vertex="1" parent="BPcnXbv9HBGROFSFqeC2-1">
          <mxGeometry x="710" y="315" width="40" height="80" as="geometry" />
        </mxCell>
        <mxCell id="BPcnXbv9HBGROFSFqeC2-37" value="分片" style="shape=cylinder3;whiteSpace=wrap;html=1;boundedLbl=1;backgroundOutline=1;size=15;strokeWidth=2;fillColor=#dae8fc;gradientColor=#7ea6e0;strokeColor=#6c8ebf;" vertex="1" parent="BPcnXbv9HBGROFSFqeC2-1">
          <mxGeometry x="770" y="315" width="40" height="80" as="geometry" />
        </mxCell>
        <mxCell id="BPcnXbv9HBGROFSFqeC2-38" value="有 3 个索引 {index1, index2, index3}，有 3 个服务器 {node1, node2, node3}&lt;br&gt;其中 index3 的分片有 3 个，主分片分布在每个服务器上，备分片也都分布在各个服务器上" style="text;html=1;strokeColor=none;fillColor=none;align=center;verticalAlign=middle;whiteSpace=wrap;rounded=0;" vertex="1" parent="BPcnXbv9HBGROFSFqeC2-1">
          <mxGeometry x="160" y="740" width="590" height="120" as="geometry" />
        </mxCell>
        <mxCell id="BPcnXbv9HBGROFSFqeC2-40" value="主分片" style="shape=cylinder3;whiteSpace=wrap;html=1;boundedLbl=1;backgroundOutline=1;size=15;strokeWidth=2;fillColor=#f8cecc;gradientColor=#ea6b66;strokeColor=#b85450;" vertex="1" parent="BPcnXbv9HBGROFSFqeC2-1">
          <mxGeometry x="60" y="50" width="40" height="80" as="geometry" />
        </mxCell>
        <mxCell id="BPcnXbv9HBGROFSFqeC2-42" value="备分片" style="shape=cylinder3;whiteSpace=wrap;html=1;boundedLbl=1;backgroundOutline=1;size=15;strokeWidth=2;fillColor=#dae8fc;gradientColor=#7ea6e0;strokeColor=#6c8ebf;" vertex="1" parent="BPcnXbv9HBGROFSFqeC2-1">
          <mxGeometry x="120" y="50" width="40" height="80" as="geometry" />
        </mxCell>
        <mxCell id="BPcnXbv9HBGROFSFqeC2-43" value="ES索引" style="rounded=1;whiteSpace=wrap;html=1;strokeWidth=2;fillColor=#ffcd28;gradientColor=#ffa500;strokeColor=#d79b00;" vertex="1" parent="BPcnXbv9HBGROFSFqeC2-1">
          <mxGeometry x="170" y="60" width="120" height="60" as="geometry" />
        </mxCell>
        <mxCell id="BPcnXbv9HBGROFSFqeC2-44" value="ES服务器" style="ellipse;shape=cloud;whiteSpace=wrap;html=1;strokeWidth=2;fillColor=#d5e8d4;gradientColor=#97d077;strokeColor=#82b366;" vertex="1" parent="BPcnXbv9HBGROFSFqeC2-1">
          <mxGeometry x="290" y="50" width="120" height="80" as="geometry" />
        </mxCell>
        <mxCell id="BPcnXbv9HBGROFSFqeC2-8" value="分片" style="shape=cylinder3;whiteSpace=wrap;html=1;boundedLbl=1;backgroundOutline=1;size=15;strokeWidth=2;fillColor=#f8cecc;gradientColor=#ea6b66;strokeColor=#b85450;" vertex="1" parent="BPcnXbv9HBGROFSFqeC2-1">
          <mxGeometry x="250" y="632" width="40" height="80" as="geometry" />
        </mxCell>
        <mxCell id="BPcnXbv9HBGROFSFqeC2-11" value="分片" style="shape=cylinder3;whiteSpace=wrap;html=1;boundedLbl=1;backgroundOutline=1;size=15;strokeWidth=2;fillColor=#f8cecc;gradientColor=#ea6b66;strokeColor=#b85450;" vertex="1" parent="BPcnXbv9HBGROFSFqeC2-1">
          <mxGeometry x="310" y="632" width="40" height="80" as="geometry" />
        </mxCell>
      </root>
    </mxGraphModel>
  </diagram>
</mxfile>
